<?xml version="1.0" encoding="utf-8"?>
<!-- Generator: Adobe Illustrator 19.1.0, SVG Export Plug-In . SVG Version: 6.00 Build 0)  -->
<svg version="1.1" id="Layer_1" xmlns="http://www.w3.org/2000/svg" xmlns:xlink="http://www.w3.org/1999/xlink" x="0px" y="0px"
	 viewBox="0 0 74.8 70.3" style="enable-background:new 0 0 74.8 70.3;" xml:space="preserve">
<style type="text/css">
	.st0{fill:#BE1E2D;}
</style>
<path class="st0" d="M56.7,34.1C57,35,63.1,33,65.5,40c2,6.1-2.1,8.9-1.7,9.7c0.5,1,10.8,3,11,9.5c0.2,9-12.2,11.1-15.2,11.1
	c-17.5,0.2-27.7-2.7-36.6-2.5c-3.6,0.1-10,3-14.3,2.5C5,69.8-0.9,66.8,0.1,59.1c1.5-11.8,10.9-9.3,11-10c0.1-1-3.4-2.4-2-8.6
	c1.6-7.1,7.7-5.3,8.2-7.2c0.2-0.7-1.6-5.4-0.5-9.3c1.2-4.4,9-6.7,9.3-7.4c0.5-1-1.4-1.8-1.4-2.9c0.1-4.2,4.1-6,4.2-8.8
	c0-1.4-1.1-3.4-0.4-4.5C30-1.8,42.1,6,45.2,9.6c4.7,5.6,3.7,8.2,2.9,12c0,0,7.2,0.8,9.1,4.3C59.2,29.5,56.5,33.4,56.7,34.1z
	 M24.7,28.3c-4.6,0-8.3,4.7-8.3,10.6s3.7,10.6,8.3,10.6S33,44.8,33,38.9S29.3,28.3,24.7,28.3z M48.9,28.3c-4.6,0-8.3,4.7-8.3,10.6
	s3.7,10.6,8.3,10.6s8.3-4.7,8.3-10.6S53.5,28.3,48.9,28.3z M22.7,53.5c0,0,3.3,8.2,13.8,8.2c9.7,0,13.8-8.1,13.8-8.1L22.7,53.5z
	 M24.7,33.4c-2.3,0-4.1,2.6-4.1,5.8s1.8,5.8,4.1,5.8s4.1-2.6,4.1-5.8S27,33.4,24.7,33.4z M49,33.4c-2.3,0-4.1,2.6-4.1,5.8
	S46.7,45,49,45s4.1-2.6,4.1-5.8S51.2,33.4,49,33.4z"/>
</svg>
